<?xml version="1.0" standalone="no"?>
<!DOCTYPE svg PUBLIC "-//W3C//DTD SVG 20010904//EN"
 "http://www.w3.org/TR/2001/REC-SVG-20010904/DTD/svg10.dtd">
<svg version="1.0" xmlns="http://www.w3.org/2000/svg"
 width="1024.000000pt" height="1024.000000pt" viewBox="0 0 1024.000000 1024.000000"
 preserveAspectRatio="xMidYMid meet">

<g transform="translate(0.000000,1024.000000) scale(0.100000,-0.100000)"
fill="#000000" stroke="none">
<path d="M6829 9481 c-14 -11 -47 -51 -72 -90 -155 -230 -187 -463 -91 -653
57 -113 203 -234 389 -323 129 -62 239 -98 500 -166 368 -96 604 -185 716
-271 l47 -36 69 34 c73 35 162 113 189 166 9 17 18 55 21 86 l6 56 15 -39 c19
-50 28 -442 12 -525 -21 -112 -117 -208 -292 -290 -45 -21 -78 -39 -73 -39 6
-1 55 21 110 48 123 61 203 130 242 209 l28 57 0 250 c-1 236 -2 253 -23 307
-26 64 -90 141 -150 178 -35 22 -41 32 -50 76 -17 81 -50 140 -108 193 -65 59
-124 81 -218 81 -55 0 -83 -6 -124 -25 -30 -14 -59 -22 -65 -18 -5 3 -7 2 -4
-4 4 -6 -7 -22 -23 -36 -97 -87 -133 -245 -83 -365 11 -28 12 -34 1 -30 -54
21 -226 72 -329 98 -236 60 -465 164 -576 264 -173 156 -189 382 -41 601 29
42 61 89 70 104 23 33 23 63 1 89 -27 32 -64 37 -94 13z m1286 -811 c26 -29
32 -118 11 -159 -35 -67 -126 -78 -180 -22 -57 60 -36 144 47 181 55 26 99 25
122 0z"/>
<path d="M1501 8884 l-31 -26 0 -1999 0 -2000 25 -24 24 -25 2020 0 c1111 0
2027 3 2036 6 47 18 45 -71 45 2038 0 1233 -4 1984 -10 2000 -22 60 120 56
-2074 56 l-2004 0 -31 -26z m3987 -2026 l-3 -1923 -1943 0 -1942 0 0 1623 c0
892 0 1757 0 1922 l0 300 1945 0 1945 0 -2 -1922z"/>
<path d="M2201 8464 c0 -11 3 -14 6 -6 3 7 2 16 -1 19 -3 4 -6 -2 -5 -13z"/>
<path d="M2210 7860 l0 -320 288 0 287 0 -3 -310 -3 -310 311 0 c195 0 309 -4
305 -10 -3 -5 -7 -142 -8 -305 l-2 -295 315 0 315 0 -3 -304 -3 -304 347 -1
347 -2 -6 53 c-4 29 -7 180 -7 336 l0 282 -305 0 -305 0 0 300 0 300 -52 2
c-29 0 -57 2 -63 3 -5 2 -124 3 -262 4 l-253 1 0 311 0 311 -27 -2 c-16 -1
-153 -2 -305 -1 l-278 1 0 290 0 290 -315 0 -315 0 0 -320z"/>
<path d="M7408 8873 c7 -3 16 -2 19 1 4 3 -2 6 -13 5 -11 0 -14 -3 -6 -6z"/>
<path d="M7498 8853 c7 -3 16 -2 19 1 4 3 -2 6 -13 5 -11 0 -14 -3 -6 -6z"/>
<path d="M7548 8843 c7 -3 16 -2 19 1 4 3 -2 6 -13 5 -11 0 -14 -3 -6 -6z"/>
<path d="M7588 8833 c7 -3 16 -2 19 1 4 3 -2 6 -13 5 -11 0 -14 -3 -6 -6z"/>
<path d="M7628 8823 c7 -3 16 -2 19 1 4 3 -2 6 -13 5 -11 0 -14 -3 -6 -6z"/>
<path d="M7668 8813 c7 -3 16 -2 19 1 4 3 -2 6 -13 5 -11 0 -14 -3 -6 -6z"/>
<path d="M7708 8803 c7 -3 16 -2 19 1 4 3 -2 6 -13 5 -11 0 -14 -3 -6 -6z"/>
<path d="M7778 8783 c7 -3 16 -2 19 1 4 3 -2 6 -13 5 -11 0 -14 -3 -6 -6z"/>
<path d="M7825 8770 c27 -12 43 -12 25 0 -8 5 -22 9 -30 9 -10 0 -8 -3 5 -9z"/>
<path d="M7370 8027 c0 -2 15 -16 33 -33 l32 -29 -29 33 c-28 30 -36 37 -36
29z"/>
<path d="M8147 7891 c-65 -19 -114 -37 -110 -38 4 -2 69 15 143 36 74 22 124
40 110 39 -14 0 -78 -17 -143 -37z"/>
<path d="M7975 7840 c-13 -5 -14 -9 -5 -9 8 0 24 4 35 9 13 5 14 9 5 9 -8 0
-24 -4 -35 -9z"/>
<path d="M7905 7820 c-13 -5 -14 -9 -5 -9 8 0 24 4 35 9 13 5 14 9 5 9 -8 0
-24 -4 -35 -9z"/>
<path d="M7835 7800 c-13 -5 -14 -9 -5 -9 8 0 24 4 35 9 13 5 14 9 5 9 -8 0
-24 -4 -35 -9z"/>
<path d="M7750 7775 c-19 -7 -28 -13 -20 -13 8 0 31 6 50 13 19 7 28 13 20 13
-8 0 -31 -6 -50 -13z"/>
<path d="M7598 7723 c7 -3 16 -2 19 1 4 3 -2 6 -13 5 -11 0 -14 -3 -6 -6z"/>
<path d="M7533 7708 c-24 -8 -33 -17 -33 -32 0 -65 -96 -188 -176 -225 -45
-21 -59 -35 -26 -25 9 2 7 -1 -6 -8 -14 -7 -26 -8 -30 -2 -4 5 -40 7 -82 3
-41 -3 -62 -6 -47 -7 18 -1 26 -6 21 -14 -5 -7 -3 -8 7 -2 25 15 97 14 103 -1
7 -18 -9 -28 -59 -36 l-40 -6 45 -2 c43 -1 73 9 71 23 -3 21 1 28 13 23 8 -3
17 1 20 9 3 8 13 14 23 15 16 0 16 1 -1 8 -19 7 -19 8 2 13 12 3 21 3 20 -1
-2 -19 3 -31 12 -26 6 3 10 1 10 -5 0 -7 -8 -9 -21 -5 -15 5 -19 4 -15 -4 4
-7 -1 -11 -12 -11 -11 0 -25 -7 -32 -15 -20 -24 5 -19 76 16 74 37 126 90 160
163 22 49 47 167 35 165 -3 -1 -21 -6 -38 -11z"/>
<path d="M6930 7506 c0 -2 8 -10 18 -17 15 -13 16 -12 3 4 -13 16 -21 21 -21
13z"/>
<path d="M7000 7452 c0 -6 9 -12 20 -15 11 -3 20 -3 20 -1 0 2 -9 8 -20 14
-11 6 -20 7 -20 2z"/>
<path d="M8200 7375 c-19 -7 -28 -14 -20 -14 8 0 29 6 45 14 39 17 21 18 -25
0z"/>
<path d="M7135 7370 c-3 -5 1 -10 9 -10 9 0 16 5 16 10 0 6 -4 10 -9 10 -6 0
-13 -4 -16 -10z"/>
<path d="M7982 7312 c-83 -25 -150 -47 -148 -49 4 -5 317 85 325 93 10 10 -31
-1 -177 -44z"/>
<path d="M7798 7253 c7 -3 16 -2 19 1 4 3 -2 6 -13 5 -11 0 -14 -3 -6 -6z"/>
<path d="M7758 7243 c7 -3 16 -2 19 1 4 3 -2 6 -13 5 -11 0 -14 -3 -6 -6z"/>
<path d="M7658 7213 c7 -3 16 -2 19 1 4 3 -2 6 -13 5 -11 0 -14 -3 -6 -6z"/>
<path d="M7518 7173 c7 -3 16 -2 19 1 4 3 -2 6 -13 5 -11 0 -14 -3 -6 -6z"/>
<path d="M7448 7153 c7 -3 16 -2 19 1 4 3 -2 6 -13 5 -11 0 -14 -3 -6 -6z"/>
<path d="M7348 7123 c7 -3 16 -2 19 1 4 3 -2 6 -13 5 -11 0 -14 -3 -6 -6z"/>
<path d="M6907 6957 c-124 -66 -227 -193 -240 -294 -10 -84 76 -167 268 -259
141 -67 297 -118 576 -189 358 -90 619 -167 764 -226 27 -10 37 -8 104 26 127
63 206 155 225 260 7 36 9 38 19 20 8 -13 13 -99 14 -259 1 -131 5 -241 8
-245 4 -3 5 104 3 239 -3 181 -7 252 -17 272 -8 15 -18 25 -22 22 -5 -3 -6 2
-3 10 4 11 -16 37 -58 80 -69 69 -188 134 -325 177 -68 21 -72 24 -78 58 -19
109 -79 202 -156 244 l-34 18 30 -23 c59 -45 87 -77 79 -89 -4 -7 -3 -9 4 -5
12 7 35 -27 25 -38 -3 -3 -2 -6 4 -6 11 0 37 -79 29 -87 -3 -3 1 -21 10 -41
13 -31 13 -42 -1 -96 -36 -141 -134 -235 -273 -265 -70 -15 -98 -14 -158 4
-185 55 -286 251 -228 444 8 29 14 54 12 55 -2 1 -57 20 -123 40 -134 43 -298
114 -361 156 l-41 28 -56 -31z"/>
<path d="M7783 6943 c15 -2 37 -2 50 0 12 2 0 4 -28 4 -27 0 -38 -2 -22 -4z"/>
<path d="M7878 6933 c7 -3 16 -2 19 1 4 3 -2 6 -13 5 -11 0 -14 -3 -6 -6z"/>
<path d="M7554 6838 l-29 -33 33 29 c30 28 37 36 29 36 -2 0 -16 -15 -33 -32z"/>
<path d="M8027 6820 c3 -11 9 -20 15 -20 5 0 4 9 -2 20 -6 11 -12 20 -14 20
-2 0 -2 -9 1 -20z"/>
<path d="M8061 6741 c-8 -5 -9 -11 -3 -15 5 -3 12 1 16 9 6 17 6 18 -13 6z"/>
<path d="M8057 6704 c-8 -13 20 -41 30 -30 3 3 1 6 -5 6 -6 0 -12 8 -14 18 -2
11 -6 13 -11 6z"/>
<path d="M8055 6650 c3 -5 8 -10 11 -10 2 0 4 5 4 10 0 6 -5 10 -11 10 -5 0
-7 -4 -4 -10z"/>
<path d="M8091 6641 c-9 -6 -10 -10 -2 -12 7 -3 7 -12 -3 -30 -11 -21 -11 -26
0 -26 8 0 14 1 14 1 0 1 4 16 9 33 10 35 3 47 -18 34z"/>
<path d="M8053 6616 c3 -8 1 -17 -6 -19 -7 -3 -2 -4 11 -4 21 1 33 17 11 17
-5 0 -7 5 -4 10 3 6 1 10 -5 10 -7 0 -10 -6 -7 -14z"/>
<path d="M8120 6585 c-7 -9 -10 -18 -6 -22 3 -3 6 -1 6 6 0 7 5 9 10 6 6 -3
10 1 10 9 0 20 -4 20 -20 1z"/>
<path d="M8015 6522 c-19 -36 -49 -71 -82 -97 -28 -22 -52 -44 -52 -48 -1 -5
4 -5 9 -2 6 3 10 1 10 -5 0 -6 5 -8 11 -4 8 5 8 9 -1 14 -9 6 -7 11 9 19 12 7
26 9 31 6 6 -3 7 1 4 9 -4 9 0 18 10 22 8 3 26 22 38 42 12 21 27 40 32 44 6
4 7 8 3 8 -4 0 -3 9 3 21 7 11 10 22 8 24 -2 2 -17 -22 -33 -53z"/>
<path d="M8060 6543 c0 -6 5 -15 10 -18 6 -4 8 -11 5 -16 -4 -5 -1 -9 5 -9 7
0 9 8 5 21 -5 14 -2 25 6 30 10 6 7 8 -9 6 -12 0 -22 -7 -22 -14z"/>
<path d="M8046 6497 c3 -10 9 -15 12 -12 3 3 0 11 -7 18 -10 9 -11 8 -5 -6z"/>
<path d="M8103 6498 c-6 -7 -14 -23 -17 -35 -4 -12 -12 -21 -19 -19 -7 1 -9 1
-4 -1 4 -3 5 -9 1 -14 -3 -5 -1 -9 4 -9 9 0 55 81 49 87 -2 2 -9 -2 -14 -9z"/>
<path d="M8019 6453 c-13 -17 -13 -17 6 -3 11 8 22 16 24 17 2 2 0 3 -6 3 -6
0 -17 -8 -24 -17z"/>
<path d="M8029 6408 c-6 -21 -5 -39 1 -43 5 -3 7 4 5 16 -3 15 0 19 10 15 8
-3 15 -1 15 4 0 8 -28 15 -31 8z"/>
<path d="M7935 6380 c-3 -5 -2 -10 4 -10 5 0 13 5 16 10 3 6 2 10 -4 10 -5 0
-13 -4 -16 -10z"/>
<path d="M7850 6370 c-8 -5 -12 -12 -9 -15 4 -3 12 1 19 10 14 17 11 19 -10 5z"/>
<path d="M7975 6360 c-13 -6 -15 -9 -5 -9 8 0 22 4 30 9 18 12 2 12 -25 0z"/>
<path d="M7803 6353 c-13 -2 -23 -8 -23 -13 0 -10 38 -1 46 11 3 5 4 8 2 8 -2
-1 -13 -4 -25 -6z"/>
<path d="M7746 6341 c-19 -7 -19 -8 0 -13 13 -3 21 0 21 8 0 8 -1 14 -1 13 -1
0 -10 -4 -20 -8z"/>
<path d="M7810 6300 c0 -5 5 -10 11 -10 5 0 7 5 4 10 -3 6 -8 10 -11 10 -2 0
-4 -4 -4 -10z"/>
<path d="M7084 6049 c-74 -28 -137 -88 -175 -165 -28 -57 -32 -74 -32 -148 0
-67 5 -93 25 -137 41 -88 79 -131 144 -164 54 -27 68 -30 154 -29 74 0 105 5
142 22 90 40 178 142 193 225 4 20 11 35 15 32 5 -3 0 -28 -10 -56 -10 -27
-17 -59 -15 -70 2 -11 0 -17 -4 -14 -5 3 -12 -2 -15 -11 -4 -9 -9 -14 -12 -11
-4 3 -15 -4 -24 -16 -14 -17 -16 -25 -7 -37 10 -13 10 -13 -5 -1 -15 11 -19
11 -24 -3 -3 -9 -10 -14 -14 -11 -5 3 -11 1 -15 -5 -5 -8 5 -13 25 -12 3 0 5
-13 5 -29 0 -31 -5 -35 -22 -18 -8 8 -14 6 -22 -9 -6 -10 -8 -22 -6 -26 3 -3
0 -2 -6 3 -6 5 -18 7 -27 4 -10 -4 -13 -2 -8 5 4 6 -1 10 -13 9 -15 -1 -17 -4
-8 -18 6 -9 19 -15 31 -13 14 3 11 -1 -8 -10 -37 -17 -142 -16 -138 2 2 10 -2
10 -18 0 -19 -12 -19 -13 12 -22 67 -17 239 19 221 47 -4 6 -1 7 6 3 19 -12
87 41 125 98 42 63 68 159 65 235 l-3 55 55 17 c75 24 50 23 -41 -1 -41 -11
-78 -20 -81 -20 -4 0 -9 20 -12 45 -15 109 -100 216 -200 254 -75 28 -182 28
-253 0z m175 3 c-9 -4 -15 -15 -13 -24 1 -10 -2 -20 -7 -24 -5 -3 -9 -10 -9
-16 0 -6 8 -3 19 8 10 10 16 25 13 32 -5 14 -1 15 22 6 13 -5 13 -10 5 -27
-11 -21 -11 -21 7 -4 19 18 19 19 -1 33 -19 15 -18 15 10 8 58 -13 85 -34 112
-87 25 -46 28 -63 28 -147 0 -87 -3 -100 -30 -149 -58 -105 -166 -170 -293
-176 -35 -1 -81 2 -102 7 -42 11 -81 45 -65 56 6 4 11 13 13 20 3 16 -25 16
-30 0 -3 -7 -7 -5 -11 6 -4 9 -3 15 2 11 16 -9 20 9 5 23 -11 10 -14 10 -14 0
0 -7 -5 -5 -11 5 -6 11 -13 58 -16 106 -4 69 -1 96 13 127 9 21 17 42 16 45
-2 11 70 90 76 84 4 -3 0 -10 -8 -15 -12 -8 -11 -10 6 -10 17 0 21 5 18 25 -2
21 5 29 36 45 39 20 39 20 35 0 -5 -24 4 -25 31 -5 10 8 14 14 8 13 -7 -2 -12
2 -13 7 -1 6 3 10 8 10 5 0 13 3 17 8 4 4 37 7 73 6 36 0 59 -3 50 -7z m211
-642 c0 -5 -2 -10 -4 -10 -3 0 -8 5 -11 10 -3 6 -1 10 4 10 6 0 11 -4 11 -10z"/>
<path d="M7192 6038 c-15 -15 -16 -52 -2 -43 6 4 7 11 4 17 -4 7 -2 8 4 4 7
-4 12 -18 12 -32 0 -13 3 -24 8 -24 11 0 8 83 -3 87 -6 2 -16 -2 -23 -9z"/>
<path d="M7341 6000 c6 -16 15 -27 21 -24 6 4 6 9 -2 14 -9 6 -9 9 1 12 10 3
7 8 -8 16 -21 12 -22 11 -12 -18z"/>
<path d="M7063 6001 c-3 -13 -11 -18 -21 -14 -15 4 -15 3 1 -10 20 -16 23 -38
5 -33 -7 1 -10 1 -6 -1 7 -5 -34 -51 -42 -47 -3 2 -6 -6 -7 -16 -1 -15 5 -11
28 15 35 40 107 70 144 61 38 -10 65 -61 65 -123 0 -45 -4 -56 -34 -87 -28
-30 -40 -36 -74 -36 -22 0 -52 4 -66 10 -31 12 -66 65 -66 101 0 19 -6 28 -22
32 -23 6 -23 6 -3 -10 20 -15 20 -15 -2 -10 -16 3 -23 1 -23 -9 0 -8 6 -11 16
-7 10 4 17 -2 21 -18 4 -13 6 -25 4 -27 -1 -2 8 -12 21 -22 13 -11 18 -19 13
-20 -6 0 -17 6 -25 13 -12 10 -12 9 0 -6 10 -14 11 -23 3 -36 -10 -16 -7 -18
18 -19 16 0 29 4 29 10 0 5 -7 8 -15 4 -9 -3 -15 0 -15 9 0 12 5 12 28 4 15
-6 29 -10 32 -9 2 1 6 -4 9 -11 2 -8 -2 -10 -14 -5 -16 6 -16 4 -4 -10 12 -15
14 -14 23 5 10 24 26 27 45 9 11 -11 12 -10 6 0 -5 10 -1 13 16 11 13 -2 26 1
28 6 11 23 26 31 60 30 20 0 53 2 74 6 28 5 37 3 37 -7 0 -8 8 -14 18 -14 15
0 15 2 2 11 -12 8 -10 10 9 5 13 -3 33 -1 43 5 19 10 25 49 8 49 -6 0 -9 -6
-7 -12 1 -8 -6 -12 -18 -10 -16 2 -17 1 -5 -7 8 -5 12 -13 8 -16 -3 -3 -12 1
-21 9 -8 8 -17 13 -19 10 -3 -2 -22 -7 -43 -9 -20 -3 -41 -8 -46 -11 -5 -3 -9
3 -9 13 -1 17 -1 17 -11 1 -5 -9 -15 -15 -23 -12 -10 4 -10 12 -2 39 6 19 15
35 21 35 5 0 3 5 -5 10 -13 8 -12 10 3 10 10 0 15 5 12 10 -4 6 -11 8 -16 5
-5 -4 -9 0 -9 9 0 8 -3 22 -7 32 -4 11 -3 15 5 10 6 -3 13 -2 17 4 3 5 -3 10
-14 10 -12 0 -26 11 -35 27 -12 24 -19 27 -55 24 -24 -1 -41 2 -41 8 0 6 -5
11 -11 11 -6 0 -9 -6 -6 -14 3 -8 0 -17 -7 -19 -9 -4 -12 5 -11 29 1 38 -4 44
-12 15z"/>
<path d="M7316 5994 c-8 -20 -4 -25 11 -16 7 4 9 13 4 21 -6 10 -10 9 -15 -5z"/>
<path d="M7263 5965 c0 -8 2 -13 5 -10 9 9 42 -16 42 -33 -1 -15 -2 -15 -15 2
-8 11 -15 15 -15 9 0 -6 7 -16 15 -23 12 -10 17 -8 25 11 10 23 10 23 7 -3 -3
-16 0 -28 4 -28 8 0 12 17 12 46 0 6 6 11 14 11 8 0 12 -6 9 -13 -5 -13 12
-32 27 -32 19 0 15 -9 -13 -26 -18 -10 -30 -13 -30 -6 0 6 -4 8 -10 5 -19 -11
-10 -24 13 -19 24 6 46 8 62 5 6 0 12 -13 13 -28 1 -14 5 -29 8 -32 3 -3 4 12
2 34 -2 25 -8 39 -15 38 -16 -4 -17 9 -2 24 7 7 3 21 -12 47 -12 21 -25 33
-28 28 -11 -18 -79 -23 -95 -7 -18 19 -23 19 -23 0z m132 -15 c3 -5 1 -10 -4
-10 -6 0 -11 5 -11 10 0 6 2 10 4 10 3 0 8 -4 11 -10z m9 -28 c3 -5 -1 -9 -9
-9 -8 0 -15 4 -15 9 0 4 4 8 9 8 6 0 12 -4 15 -8z"/>
<path d="M6968 5921 c3 -8 1 -12 -4 -9 -5 3 -15 0 -22 -8 -11 -12 -9 -14 8
-14 11 0 20 4 20 9 0 5 7 16 15 25 14 13 13 15 -4 13 -12 -1 -17 -6 -13 -16z"/>
<path d="M7265 5901 c-3 -5 -1 -12 5 -16 5 -3 10 1 10 9 0 18 -6 21 -15 7z"/>
<path d="M6948 5873 c7 -3 16 -2 19 1 4 3 -2 6 -13 5 -11 0 -14 -3 -6 -6z"/>
<path d="M7295 5870 c-3 -6 1 -7 9 -4 18 7 21 14 7 14 -6 0 -13 -4 -16 -10z"/>
<path d="M6920 5850 c-11 -7 -12 -13 -3 -32 15 -30 13 -57 -3 -51 -10 4 -13
-5 -12 -31 1 -19 5 -33 9 -30 4 2 11 0 14 -6 4 -6 3 -10 -2 -9 -22 4 -25 -3
-8 -21 10 -11 22 -17 28 -13 6 3 7 1 3 -5 -4 -6 -14 -8 -23 -5 -11 4 -14 3 -9
-5 16 -27 44 -9 36 23 -2 6 -2 20 -2 31 1 14 -6 24 -18 27 -21 5 -28 27 -9 27
5 0 7 -5 3 -12 -4 -7 -3 -8 4 -4 7 4 12 16 12 27 0 10 4 19 10 19 6 0 6 -9 0
-25 -6 -15 -6 -26 0 -30 13 -8 18 11 17 52 0 23 -4 30 -12 23 -17 -14 -38 33
-22 49 13 13 7 14 -13 1z m20 -180 c0 -5 -2 -10 -4 -10 -3 0 -8 5 -11 10 -3 6
-1 10 4 10 6 0 11 -4 11 -10z"/>
<path d="M7314 5829 c-4 -7 -3 -9 4 -5 5 3 13 0 15 -6 4 -9 6 -10 6 -1 1 17
-16 25 -25 12z"/>
<path d="M7277 5808 c-3 -12 -3 -28 1 -35 5 -8 8 0 9 22 1 40 -2 44 -10 13z"/>
<path d="M7385 5820 c-4 -6 -11 -8 -16 -4 -6 3 -18 -4 -29 -16 -10 -12 -22
-21 -27 -21 -4 -1 -10 -3 -13 -6 -3 -4 1 -3 8 1 6 4 12 2 12 -4 0 -8 6 -8 20
0 11 6 19 16 17 23 -1 7 7 11 19 9 13 -2 21 3 21 13 0 18 -3 19 -12 5z"/>
<path d="M6905 5790 c-3 -5 -1 -10 4 -10 6 0 11 5 11 10 0 6 -2 10 -4 10 -3 0
-8 -4 -11 -10z"/>
<path d="M7378 5783 c7 -3 16 -2 19 1 4 3 -2 6 -13 5 -11 0 -14 -3 -6 -6z"/>
<path d="M7296 5721 c-4 -5 -21 -8 -39 -5 -17 2 -25 1 -17 -3 8 -3 22 -11 30
-19 13 -11 17 -9 27 12 11 23 10 33 -1 15z"/>
<path d="M7320 5715 c0 -8 2 -15 4 -15 2 0 6 7 10 15 3 8 1 15 -4 15 -6 0 -10
-7 -10 -15z"/>
<path d="M6967 5703 c-8 -30 -1 -74 12 -82 7 -5 23 -7 37 -5 13 1 24 -2 24 -8
0 -6 13 -8 34 -4 23 5 35 3 38 -6 3 -7 7 -4 10 7 4 17 0 20 -28 21 -21 0 -31
-3 -28 -10 3 -6 -1 -3 -9 7 -19 23 -17 23 -47 8 -24 -11 -24 -11 -6 3 23 19
35 20 70 6 16 -6 26 -6 26 0 0 5 8 6 18 3 14 -6 15 -4 5 9 -7 8 -10 18 -6 21
3 4 3 7 -2 7 -4 0 -13 -7 -20 -17 -10 -13 -17 -14 -45 -4 -28 9 -36 8 -53 -6
-19 -16 -20 -16 -14 -1 3 9 1 19 -6 21 -9 3 -9 9 1 26 7 11 8 21 3 21 -5 0
-12 -8 -14 -17z"/>
<path d="M7207 5707 c-7 -20 1 -47 14 -47 11 0 11 17 0 44 -7 18 -8 18 -14 3z"/>
<path d="M7386 5699 c3 -5 -2 -9 -10 -9 -9 0 -16 -4 -16 -9 0 -11 19 -9 44 5
17 11 17 11 -3 17 -12 3 -19 1 -15 -4z"/>
<path d="M7320 5676 c0 -7 12 -21 26 -31 25 -16 27 -16 43 1 15 17 15 17 -1 5
-13 -10 -21 -10 -37 1 -12 7 -21 16 -21 21 0 4 5 5 12 1 7 -4 8 -3 4 4 -10 16
-26 15 -26 -2z"/>
<path d="M7176 5671 c-4 -7 -16 -9 -26 -6 -15 5 -17 2 -12 -17 3 -12 7 -17 10
-10 6 19 20 14 17 -5 -1 -10 0 -12 2 -5 6 17 16 15 43 -8 21 -18 25 -19 32 -6
7 13 12 13 28 4 24 -15 28 -11 35 33 l6 34 -15 -33 c-15 -33 -36 -36 -36 -6 0
8 4 12 10 9 6 -4 7 1 3 11 -4 11 -8 13 -11 6 -2 -7 -7 -10 -11 -8 -4 3 -7 -4
-7 -16 1 -12 -5 -23 -11 -25 -7 -3 -13 3 -13 13 0 9 -3 14 -7 10 -4 -3 -12 3
-19 15 -7 15 -13 18 -18 10z"/>
<path d="M7312 5623 c-5 -10 -6 -27 -1 -38 l8 -20 1 20 c1 11 4 15 7 8 3 -9 9
-9 22 -1 17 10 17 13 2 30 -19 23 -28 23 -39 1z m31 -6 c3 -7 -3 -13 -14 -13
-13 0 -15 3 -7 13 6 7 12 13 13 13 2 0 5 -6 8 -13z"/>
<path d="M6954 5605 c26 -19 42 -19 26 0 -7 8 -20 15 -29 15 -13 -1 -13 -3 3
-15z"/>
<path d="M7191 5615 c-1 -6 4 -16 10 -22 15 -15 -7 -12 -38 5 -19 11 -23 10
-23 -2 0 -8 10 -22 22 -30 12 -9 18 -16 13 -16 -6 0 -1 -7 9 -15 27 -21 6 -19
-23 2 -14 9 -21 12 -18 6 4 -6 0 -14 -9 -17 -9 -3 -12 -2 -9 5 4 6 -1 17 -11
25 -18 14 -18 15 5 8 16 -4 21 -3 17 5 -4 6 -18 11 -32 11 -14 0 -22 -4 -19
-10 3 -5 1 -10 -4 -10 -6 0 -11 7 -11 16 0 8 -4 12 -10 9 -20 -12 -10 -35 14
-35 26 0 47 -21 28 -28 -7 -2 -12 -8 -12 -14 0 -6 6 -6 15 2 12 10 15 10 15
-1 0 -12 2 -12 9 0 6 9 14 10 27 3 21 -11 81 8 76 23 -2 5 2 11 9 14 8 2 10
-2 5 -15 -5 -14 -1 -13 12 5 11 13 24 21 31 17 7 -5 10 0 8 15 -4 22 -34 41
-49 32 -5 -2 -8 -12 -8 -21 0 -25 -32 -43 -47 -26 -10 10 -8 13 9 16 25 3 37
28 15 28 -9 0 -18 6 -20 13 -3 6 -6 7 -6 2z m73 -45 c-6 -6 -10 -3 -10 10 0
13 4 16 10 10 7 -7 7 -13 0 -20z m-89 10 c3 -5 2 -10 -4 -10 -5 0 -13 5 -16
10 -3 6 -2 10 4 10 5 0 13 -4 16 -10z"/>
<path d="M7030 5590 c0 -5 5 -10 11 -10 5 0 7 5 4 10 -3 6 -8 10 -11 10 -2 0
-4 -4 -4 -10z"/>
<path d="M6984 5575 c-14 -10 -15 -14 -5 -15 11 0 9 -4 -5 -14 -18 -14 -18
-15 -1 -22 12 -4 24 -1 33 10 8 9 9 11 2 6 -18 -15 -32 -12 -19 3 6 8 8 17 4
20 -10 10 6 8 28 -3 22 -13 25 -5 5 16 -18 17 -18 17 -42 -1z"/>
<path d="M7040 5530 c0 -5 7 -7 15 -4 8 4 15 8 15 10 0 2 -7 4 -15 4 -8 0 -15
-4 -15 -10z"/>
<path d="M7015 5521 c-3 -5 -2 -12 3 -15 5 -3 9 1 9 9 0 17 -3 19 -12 6z"/>
<path d="M8245 5955 c-39 -17 -21 -18 25 0 19 7 28 14 20 14 -8 0 -28 -6 -45
-14z"/>
<path d="M8090 5905 c-52 -18 -91 -34 -86 -34 11 -1 199 58 205 65 11 11 -32
0 -119 -31z"/>
<path d="M7880 5840 c-47 -15 -78 -28 -70 -28 8 0 53 12 100 28 47 15 78 28
70 28 -8 0 -53 -13 -100 -28z"/>
<path d="M7745 5800 c-13 -5 -14 -9 -5 -9 8 0 24 4 35 9 13 5 14 9 5 9 -8 0
-24 -4 -35 -9z"/>
<path d="M8631 5760 c-2 -47 -51 -131 -104 -183 -85 -83 -234 -150 -495 -222
-34 -10 -61 -20 -58 -22 5 -5 102 22 246 69 205 66 343 163 394 278 15 33 25
70 23 83 -4 20 -4 20 -6 -3z"/>
<path d="M7372 5425 c-10 -8 -22 -11 -26 -8 -3 3 -6 1 -6 -5 0 -7 -7 -9 -17
-5 -14 4 -15 3 -7 -6 7 -8 19 -9 35 -3 13 5 34 8 47 7 12 -1 22 4 22 11 0 19
-26 24 -48 9z"/>
<path d="M7042 5408 c7 -7 22 -20 33 -28 15 -10 14 -7 -4 13 -14 15 -29 27
-33 27 -5 0 -3 -6 4 -12z"/>
<path d="M7150 5386 c0 -2 11 -6 25 -8 13 -3 22 -1 19 3 -5 9 -44 13 -44 5z"/>
<path d="M7248 5383 c7 -3 16 -2 19 1 4 3 -2 6 -13 5 -11 0 -14 -3 -6 -6z"/>
<path d="M7295 5354 c9 -9 19 -13 23 -10 3 4 0 11 -8 16 -24 15 -33 11 -15 -6z"/>
<path d="M7260 5345 c0 -16 16 -20 24 -6 3 5 -1 11 -9 15 -9 3 -15 0 -15 -9z"/>
<path d="M7137 5339 c7 -7 15 -10 18 -7 3 3 -2 9 -12 12 -14 6 -15 5 -6 -5z"/>
<path d="M7938 5323 c7 -3 16 -2 19 1 4 3 -2 6 -13 5 -11 0 -14 -3 -6 -6z"/>
<path d="M7807 5293 c-32 -9 -56 -17 -54 -20 5 -4 129 26 136 33 8 7 -23 2
-82 -13z"/>
<path d="M7622 5223 l-74 -25 69 -42 c101 -60 111 -69 128 -110 17 -40 13 -91
-11 -136 -15 -29 -92 -105 -149 -146 -22 -16 -57 -43 -78 -60 l-38 -32 -110
33 c-231 70 -356 128 -445 208 l-50 46 -56 -45 c-90 -71 -134 -150 -139 -249
-3 -50 18 -91 71 -139 107 -96 213 -141 516 -216 127 -32 265 -72 308 -90 132
-55 222 -126 265 -208 11 -20 10 -27 -6 -46 -10 -12 15 13 55 54 84 87 141
190 144 263 1 25 6 43 10 41 13 -8 9 4 -16 54 -49 96 -162 174 -318 220 -32 9
-57 20 -55 23 1 4 37 34 79 68 96 75 142 137 164 218 31 116 -7 244 -94 310
-52 39 -72 40 -170 6z m-637 -423 c3 -6 -1 -7 -9 -4 -18 7 -21 14 -7 14 6 0
13 -4 16 -10z m419 -182 c-55 -64 -62 -70 -68 -59 -4 6 -4 10 1 9 5 -2 24 14
42 35 18 20 36 37 39 37 3 0 -3 -10 -14 -22z m-463 -65 c13 -17 13 -17 -6 -3
-11 8 -22 16 -24 17 -2 2 0 3 6 3 6 0 17 -8 24 -17z m609 -17 c0 -2 -8 -10
-17 -17 -16 -13 -17 -12 -4 4 13 16 21 21 21 13z m-249 -88 c-4 -35 -6 -38 -9
-15 -3 26 3 57 10 57 2 0 1 -19 -1 -42z m87 -130 c18 -14 38 -29 45 -31 7 -3
5 -6 -5 -6 -9 -1 -21 5 -25 12 -11 18 -89 77 -95 72 -2 -2 -4 4 -5 14 -1 15 3
14 26 -8 15 -14 42 -38 59 -53z m-151 16 c-3 -3 -12 -4 -19 -1 -8 3 -5 6 6 6
11 1 17 -2 13 -5z"/>
<path d="M7338 5143 c7 -3 16 -2 19 1 4 3 -2 6 -13 5 -11 0 -14 -3 -6 -6z"/>
<path d="M2609 4521 c-56 -45 -18 -137 146 -356 85 -114 275 -306 380 -387
313 -238 699 -388 1099 -427 531 -52 1113 112 1536 433 47 35 86 63 88 62 1
-2 -16 -81 -38 -176 -43 -191 -42 -209 11 -239 33 -18 81 -2 97 34 6 13 41
150 77 306 58 247 65 285 54 311 -6 16 -21 34 -31 39 -11 6 -165 35 -341 65
-349 58 -355 58 -386 3 -18 -33 -8 -74 23 -94 13 -9 120 -32 240 -52 119 -21
216 -40 216 -44 0 -5 -37 -37 -82 -72 -269 -210 -546 -331 -906 -399 -156 -29
-468 -36 -626 -14 -289 41 -557 139 -796 292 -234 148 -476 401 -606 632 -26
46 -55 87 -65 92 -28 15 -65 12 -90 -9z"/>
<path d="M8042 4295 c0 -11 4 -31 8 -45 l8 -25 0 25 c0 14 -3 34 -8 45 l-9 20
1 -20z"/>
<path d="M8063 4165 c0 -33 2 -45 4 -27 2 18 2 45 0 60 -2 15 -4 0 -4 -33z"/>
<path d="M8043 4049 c-7 -29 -25 -71 -40 -93 -40 -58 -45 -66 -39 -66 3 0 19
20 36 45 35 50 63 125 58 151 -2 9 -9 -8 -15 -37z"/>
<path d="M7764 3924 c-18 -14 -18 -15 4 -4 12 6 22 13 22 15 0 8 -5 6 -26 -11z"/>
<path d="M7714 3894 c-18 -14 -18 -15 4 -4 12 6 22 13 22 15 0 8 -5 6 -26 -11z"/>
<path d="M7900 3848 c-26 -24 -32 -32 -15 -20 28 18 73 63 64 62 -2 -1 -24
-19 -49 -42z"/>
<path d="M7640 3860 c-19 -11 -30 -19 -25 -19 6 0 26 8 45 19 19 11 31 19 25
19 -5 0 -26 -8 -45 -19z"/>
<path d="M7784 3774 c-18 -14 -18 -15 4 -4 12 6 22 13 22 15 0 8 -5 6 -26 -11z"/>
<path d="M7680 3725 c-14 -8 -20 -14 -15 -14 6 0 21 6 35 14 14 8 21 14 15 14
-5 0 -21 -6 -35 -14z"/>
<path d="M7454 3588 l-19 -23 23 19 c12 11 22 21 22 23 0 8 -8 2 -26 -19z"/>
<path d="M7221 3374 c0 -11 3 -14 6 -6 3 7 2 16 -1 19 -3 4 -6 -2 -5 -13z"/>
<path d="M7315 3150 c10 -11 20 -20 23 -20 3 0 -3 9 -13 20 -10 11 -20 20 -23
20 -3 0 3 -9 13 -20z"/>
<path d="M4179 2441 c-23 -23 -29 -38 -29 -71 0 -61 41 -100 105 -100 64 0
105 39 105 100 0 61 -41 100 -105 100 -38 0 -52 -5 -76 -29z"/>
<path d="M675 1946 l0 -496 98 0 97 0 0 168 0 167 84 -3 c189 -7 323 37 396
130 107 134 89 325 -40 441 -83 75 -108 80 -390 85 l-245 3 0 -495z m464 316
c122 -60 112 -253 -16 -308 -21 -9 -71 -14 -143 -14 l-110 0 0 177 0 176 117
-7 c80 -4 128 -12 152 -24z"/>
<path d="M5356 2398 c-4 -34 -57 -912 -56 -940 0 -5 40 -8 88 -8 l89 0 13 346
c7 190 16 340 20 333 4 -8 56 -137 115 -286 l109 -273 90 0 91 0 105 257 c58
141 109 269 114 285 5 15 12 28 15 28 6 0 42 -593 41 -667 0 -22 3 -23 100
-23 l101 0 -6 63 c-10 106 -65 877 -65 903 0 24 0 24 -104 24 l-103 0 -132
-324 c-72 -179 -131 -330 -131 -335 0 -20 -18 -11 -24 12 -3 12 -64 162 -134
332 l-129 310 -101 3 -101 3 -5 -43z"/>
<path d="M2988 2373 l-68 -4 0 -94 0 -95 -65 0 -65 0 0 -80 0 -80 65 0 65 0 0
-212 c0 -185 3 -218 19 -253 22 -49 67 -89 118 -106 44 -14 142 -17 196 -6
l37 8 0 79 0 80 -26 -10 c-33 -13 -100 -13 -124 0 -32 17 -40 67 -40 246 l0
174 90 0 90 0 0 80 0 80 -90 0 -90 0 0 100 c0 98 -1 100 -22 98 -13 -1 -53 -3
-90 -5z"/>
<path d="M8058 2373 l-78 -4 0 -94 0 -95 -60 0 -60 0 0 -80 0 -80 59 0 59 0 4
-207 c5 -222 12 -259 61 -311 52 -56 144 -79 247 -62 l70 12 0 74 0 74 -54 -6
c-125 -15 -136 5 -136 251 l0 175 90 0 90 0 0 80 0 80 -90 0 -90 0 0 100 c0
89 -2 100 -17 98 -10 -1 -53 -4 -95 -5z"/>
<path d="M1802 2164 c-29 -14 -60 -39 -69 -55 -25 -41 -33 -36 -33 21 l0 50
-85 0 -85 0 0 -365 0 -365 94 0 95 0 3 234 c3 219 4 236 24 263 34 46 80 65
152 61 l62 -4 0 93 0 93 -53 0 c-37 0 -69 -8 -105 -26z"/>
<path d="M2259 2171 c-103 -33 -176 -98 -222 -199 -18 -39 -22 -65 -22 -162 0
-104 3 -121 26 -171 35 -75 96 -134 177 -172 61 -29 76 -32 162 -31 76 0 105
5 145 23 77 34 121 68 159 124 118 175 74 440 -91 545 -97 61 -225 78 -334 43z
m180 -141 c95 -27 148 -153 121 -283 -15 -73 -45 -117 -100 -144 -137 -70
-270 31 -270 206 0 99 39 173 110 209 48 24 86 27 139 12z"/>
<path d="M3600 2174 c-98 -36 -158 -93 -207 -199 -24 -53 -27 -72 -28 -165 0
-95 3 -111 29 -168 36 -79 114 -152 194 -183 82 -32 240 -33 334 -1 l67 23 3
85 c2 46 1 84 -2 84 -3 0 -16 -7 -28 -16 -42 -29 -134 -54 -201 -54 -111 1
-179 45 -206 134 l-14 46 251 0 251 0 -5 93 c-13 220 -111 327 -307 334 -61 2
-99 -2 -131 -13z m187 -144 c40 -24 62 -57 70 -104 l6 -36 -157 0 c-176 0
-176 0 -133 75 45 80 141 110 214 65z"/>
<path d="M4789 2176 c-44 -16 -98 -53 -100 -69 -1 -7 -5 6 -8 28 l-6 40 -87 3
-88 3 0 -366 0 -365 90 0 90 0 0 208 c0 114 5 227 11 252 22 98 119 145 215
105 59 -24 64 -50 64 -325 l0 -240 96 0 96 0 -4 278 c-3 275 -3 277 -29 333
-29 62 -67 94 -136 115 -57 17 -156 17 -204 0z"/>
<path d="M6680 2172 c-79 -27 -142 -61 -137 -75 2 -7 13 -38 23 -70 10 -31 20
-56 23 -54 61 34 133 60 179 64 103 9 163 -28 177 -108 l7 -36 -119 -6 c-180
-8 -267 -46 -314 -140 -30 -58 -24 -159 13 -215 38 -57 115 -93 205 -95 81 -2
129 13 188 59 l45 34 0 -40 0 -40 83 0 82 0 -5 272 c-6 311 -11 330 -85 396
-56 49 -98 63 -215 68 -74 3 -107 0 -150 -14z m270 -455 c0 -58 -3 -66 -32
-94 -66 -63 -165 -68 -212 -12 -34 40 -33 80 2 119 30 34 78 47 180 49 l62 1
0 -63z"/>
<path d="M7419 2175 c-65 -21 -133 -84 -153 -142 -19 -54 -20 -75 -6 -125 23
-81 94 -131 240 -167 126 -32 160 -64 125 -117 -24 -37 -60 -47 -149 -41 -63
4 -93 12 -147 39 l-69 34 0 -30 c0 -17 -3 -55 -6 -83 l-7 -53 39 -16 c22 -9
75 -23 119 -31 233 -42 405 56 405 230 0 108 -73 170 -257 217 -44 12 -90 30
-102 41 -27 25 -27 70 -1 94 41 37 180 30 271 -14 l40 -20 -3 82 -3 82 -50 13
c-78 21 -232 25 -286 7z"/>
<path d="M8673 2176 c-92 -30 -166 -98 -212 -195 -24 -51 -26 -67 -26 -176 0
-111 2 -124 28 -177 35 -72 110 -140 185 -169 85 -33 242 -33 335 0 l67 25 0
82 0 83 -60 -31 c-45 -24 -76 -32 -132 -36 -123 -7 -193 24 -229 102 -36 80
-50 76 226 76 l245 0 0 79 c0 158 -62 273 -172 321 -65 29 -192 37 -255 16z
m198 -162 c16 -17 36 -51 44 -77 l14 -47 -160 0 -160 0 7 23 c12 40 32 71 61
98 38 35 49 39 111 35 44 -2 59 -8 83 -32z"/>
<path d="M9522 2179 c-19 -6 -54 -30 -78 -55 l-44 -46 0 51 0 51 -85 0 -85 0
0 -365 0 -365 89 0 89 0 4 223 c3 195 5 227 22 261 26 51 86 79 162 74 l54 -3
0 93 0 92 -47 -1 c-27 0 -63 -5 -81 -10z"/>
<path d="M4160 1815 l0 -365 95 0 95 0 0 365 0 365 -95 0 -95 0 0 -365z"/>
</g>
</svg>
